<svg width="275" height="138" viewBox="0 0 275 138" fill="none" xmlns="http://www.w3.org/2000/svg">
<path d="M274.999 137.59C274.999 101.126 260.513 66.0526 234.727 40.2689C208.941 14.4852 173.967 2.78555e-06 137.5 3.26176e-08C101.033 -2.72032e-06 66.0589 14.4851 40.2727 40.2689C14.4865 66.0526 2.20392e-05 101.023 1.65328e-05 137.487H34.375C34.375 110.139 45.2398 83.9111 64.5795 64.5733C83.9191 45.2355 110.15 34.3716 137.5 34.3716C164.85 34.3716 191.08 45.2355 210.42 64.5733C229.76 83.9111 240.624 110.139 240.624 137.487L274.999 137.59Z" fill="#FB7185"/>
<path d="M70.9061 17.2007C49.3609 29.1264 31.4143 46.6189 18.9414 67.8506C6.46846 89.0822 -0.0729573 113.274 0.000613804 137.897L34.3754 137.795C34.3203 119.327 39.2263 101.183 48.5809 85.2596C57.9356 69.3359 71.3957 56.2164 87.5546 47.2722L70.9061 17.2007Z" fill="#4BB0E3"/>
<path d="M206.25 18.4197C185.399 6.38282 161.753 0.0311777 137.677 0.000114487C113.601 -0.0309487 89.9389 6.25965 69.0574 18.2427L86.168 48.0537C101.829 39.0664 119.576 34.3484 137.633 34.3717C155.69 34.395 173.424 39.1588 189.062 48.1864L206.25 18.4197Z" fill="#76C564"/>
<path d="M19.1092 67.9533C18.2337 86.0175 21.2447 83.0068 19.1092 67.9533C6.63629 89.1849 0.0948635 113.376 0.168435 138L34.5432 137.897C34.488 119.43 39.3941 101.286 48.7488 85.3623C32.5899 94.3065 30.2777 102.576 48.7488 85.3623L19.1092 67.9533Z" fill="#4C81DB"/>
<path d="M255.934 67.6636C256.809 85.7278 253.798 82.7171 255.934 67.6636C268.407 88.8953 275.073 112.966 274.999 137.59L240.624 137.487C240.68 119.019 235.645 100.965 226.29 85.0412C244.761 102.255 239.244 101.439 226.29 85.0412L255.934 67.6636Z" fill="#BE123C"/>
</svg>
