<svg width="128" height="128" viewBox="0 0 128 128" fill="none" xmlns="http://www.w3.org/2000/svg">
<path d="M23.4502 62.3004C24.1702 61.5804 22.1802 53.0104 31.0502 46.3904C39.9202 39.7704 45.9702 43.7204 46.8202 43.4304C47.6602 43.1504 51.6102 25.8304 68.2202 21.3304C84.8302 16.8304 102.15 25.2704 106.23 39.3504C109.96 52.2204 107.07 60.8904 107.5 61.4504C107.92 62.0104 115.95 61.7304 120.59 69.1904C125.23 76.6504 123.55 81.3004 123.55 81.3004L93.9902 90.4504H46.6902C46.6902 90.4504 5.0202 79.4704 4.6002 77.5004C4.1802 75.5304 5.1302 69.1304 11.9202 65.2504C17.8202 61.8804 22.1802 63.5704 23.4502 62.3004Z" fill="#151B23"/>
<path d="M35.1598 92.8401C35.1598 92.8401 19.3798 96.1401 8.70984 87.8801C2.28984 82.9001 4.62984 74.8301 4.62984 74.8301C4.62984 74.8301 9.22984 79.4801 18.5198 80.7401C27.8098 82.0101 38.2298 81.5801 38.2298 81.5801C38.2298 81.5801 40.8298 86.0201 50.6198 88.0601C62.8898 90.6101 69.3598 84.3301 69.3598 84.3301C69.3598 84.3301 72.7198 88.3501 84.5498 88.6301C96.3798 88.9101 103.01 80.6501 104.12 80.4601C104.68 80.3701 107.94 83.3301 114.4 82.2901C120.55 81.3001 123.79 78.6301 123.79 78.6301C123.79 78.6301 124.68 85.2501 118.49 89.3301C113.66 92.5101 105.26 92.8501 105.26 92.8501C105.26 92.8501 103.98 97.7601 98.2098 101.33C92.8498 104.66 83.6098 105.77 76.7698 103.73C68.1798 101.17 66.0498 97.2601 66.0498 97.2601C66.0498 97.2601 59.6498 101.01 49.6498 99.7401C40.1998 98.5601 35.1598 92.8401 35.1598 92.8401Z" fill="#212830"/>
</svg>
