<svg width="128" height="128" viewBox="0 0 128 128" fill="none" xmlns="http://www.w3.org/2000/svg">
<path d="M109.65 53.4809H109.64C109.64 53.4109 109.65 53.3409 109.65 53.2709C109.65 43.7209 101.91 35.9709 92.35 35.9709C91.12 35.9709 89.92 36.1009 88.77 36.3509C85.34 28.0109 77.15 22.1309 67.57 22.1309C60.38 22.1309 53.97 25.4509 49.77 30.6309C46.9817 29.2129 43.8982 28.4728 40.77 28.4709C30.42 28.4709 21.92 36.3509 20.93 46.4409C9.68003 47.0409 0.650028 56.2609 0.500028 67.7109C0.340028 79.6309 9.89003 89.4309 21.81 89.5809C22.74 89.5909 23.64 89.5309 24.54 89.4209C29.15 99.1409 39.04 105.861 50.51 105.861C57.43 105.861 63.77 103.411 68.73 99.3409C72.52 102.151 77.2 103.831 82.28 103.831C92.7 103.831 101.47 96.8409 104.2 87.2909C105.92 87.8609 107.75 88.1809 109.66 88.1809C119.24 88.1809 127.01 80.4109 127.01 70.8309C127 61.2509 119.24 53.4809 109.65 53.4809Z" fill="#151B23"/>
<path d="M119.85 56.7891C123.78 60.7591 121 69.8591 118.3 72.8291C112.98 78.6591 103.22 77.2991 99.3004 76.4591C98.2404 76.2291 98.0704 76.3091 97.7204 76.5191C97.4104 76.7091 97.2704 77.0091 96.9304 77.7191C95.6704 80.4391 92.4104 85.7091 85.5304 87.8291C78.3604 90.0391 71.6004 86.6691 68.4404 84.6591C67.2404 83.8991 67.1904 83.8791 66.6504 83.8891C66.1004 83.8991 65.5604 84.2991 64.9104 84.8091C62.0504 87.0591 55.5204 91.0291 45.4504 90.4491C35.5804 89.8791 29.9304 83.7991 27.9904 80.6691C27.6204 80.0691 27.2204 79.5691 26.7604 79.5191C26.2304 79.4691 25.6404 80.0091 25.2004 80.4491C21.0004 84.5391 7.78039 85.7691 3.40039 78.7991C7.86039 85.9491 14.7504 89.4891 21.8204 89.5791C22.7504 89.5891 23.6504 89.5291 24.5504 89.4191C29.1604 99.1391 39.0504 105.859 50.5204 105.859C57.4404 105.859 63.7804 103.409 68.7404 99.3391C72.5304 102.149 77.2104 103.829 82.2904 103.829C92.7104 103.829 101.48 96.8391 104.21 87.2891C105.93 87.8591 107.76 88.1791 109.67 88.1791C119.25 88.1791 127.02 80.4091 127.02 70.8291C127 65.7291 124.44 59.9691 119.85 56.7891Z" fill="#212830"/>
</svg>
