<svg width="900" height="323" viewBox="0 0 900 323" fill="none" xmlns="http://www.w3.org/2000/svg">
<path fill-rule="evenodd" clip-rule="evenodd" d="M133.165 290C133.165 307.752 147.556 322.143 165.308 322.143H263.819C216.766 322.143 178.622 284.865 178.622 238.881C178.622 192.897 216.766 155.619 263.819 155.619C265.82 155.619 267.805 155.687 269.771 155.82C268.405 148.214 267.692 140.382 267.692 132.384C267.692 59.6648 326.643 0.714325 399.362 0.714325C457.416 0.714325 506.695 38.2865 524.209 90.4411C528.36 90.0072 532.575 89.7849 536.841 89.7849C602.073 89.7849 654.957 141.8 654.957 205.964C654.957 266.921 603.519 322.058 546.52 322.058C489.522 322.058 546.52 322.143 546.52 322.143H782.137C799.889 322.143 814.28 307.752 814.28 290C814.28 272.248 799.889 257.857 782.137 257.857H754.586C736.834 257.857 722.443 243.466 722.443 225.714C722.443 207.962 736.834 193.571 754.586 193.571H841.831C859.583 193.571 873.974 179.181 873.974 161.429C873.974 143.677 859.583 129.286 841.831 129.286H740.81C758.562 129.286 772.953 114.895 772.953 97.1429C772.953 79.3909 758.562 65 740.81 65H537.245C554.997 65 569.388 50.6092 569.388 32.8572C569.388 15.1052 554.997 0.714325 537.245 0.714325H399.362H238.777C221.025 0.714325 206.635 15.1052 206.635 32.8572C206.635 50.6092 221.025 65 238.777 65H104.554C86.8018 65 72.411 79.3909 72.411 97.1429C72.411 114.895 86.8018 129.286 104.554 129.286H151.532C169.284 129.286 183.675 143.677 183.675 161.429C183.675 179.181 169.284 193.571 151.532 193.571H35.6764C17.9244 193.571 3.53357 207.962 3.53357 225.714C3.53357 243.466 17.9244 257.857 35.6764 257.857H165.308C147.556 257.857 133.165 272.248 133.165 290Z" fill="#858585" fill-opacity="0.1"/>
<path d="M867.417 322.143C885.169 322.143 899.559 307.752 899.559 290C899.559 272.248 885.169 257.857 867.417 257.857C849.665 257.857 835.274 272.248 835.274 290C835.274 307.752 849.665 322.143 867.417 322.143Z" fill="#858585" fill-opacity="0.1"/>
<path d="M624.917 40.6642C632.526 40.6642 638.692 34.4967 638.692 26.8887C638.692 19.2807 632.526 13.1132 624.917 13.1132C617.308 13.1132 611.141 19.2807 611.141 26.8887C611.141 34.4967 617.308 40.6642 624.917 40.6642Z" stroke="#858585" stroke-opacity="0.1" stroke-width="8.46939"/>
<path d="M763.255 238.606C770.864 238.606 777.031 232.439 777.031 224.831C777.031 217.223 770.864 211.055 763.255 211.055C755.646 211.055 749.479 217.223 749.479 224.831C749.479 232.439 755.646 238.606 763.255 238.606Z" fill="#858585" fill-opacity="0.1"/>
<path d="M666.514 95.7617L704.897 134.141M705.481 95.7617L667.097 134.141" stroke="#858585" stroke-opacity="0.1" stroke-width="10.5867" stroke-linecap="round" stroke-linejoin="round"/>
<path d="M151.333 6.70074L178.884 34.2518M178.884 6.70074L151.333 34.2518" stroke="#858585" stroke-opacity="0.1" stroke-width="10.5867" stroke-linecap="round" stroke-linejoin="round"/>
<path d="M137.558 173.989C145.166 173.989 151.333 167.821 151.333 160.213C151.333 152.605 145.166 146.438 137.558 146.438C129.95 146.438 123.782 152.605 123.782 160.213C123.782 167.821 129.95 173.989 137.558 173.989Z" fill="#858585" fill-opacity="0.1"/>
<path fill-rule="evenodd" clip-rule="evenodd" d="M353.368 54.9828C353.368 158.311 463.867 266.557 601.595 266.557C584.72 285.022 558.656 297.548 528.97 299.516V299.577H287.142C257.801 299.577 208.785 288.577 208.785 240.408C208.785 192.24 251.381 181.24 291.631 181.24C293.342 181.24 295.04 181.288 296.722 181.382C295.554 175.978 295.348 170.407 294.944 164.728C292.21 126.366 297.548 66.4123 353.433 50.6775C353.388 52.1115 353.368 53.5455 353.368 54.9828Z" fill="#858585" fill-opacity="0.1"/>
<path d="M400.805 267.34C412.543 267.34 422.058 257.825 422.058 246.088C422.058 234.351 412.543 224.835 400.805 224.835C389.068 224.835 379.553 234.351 379.553 246.088C379.553 257.825 389.068 267.34 400.805 267.34Z" stroke="#858585" stroke-opacity="0.1" stroke-width="10.5867" stroke-linecap="round" stroke-linejoin="round"/>
<path d="M340.912 201.646L367.961 180.419L340.912 160.213" stroke="#858585" stroke-opacity="0.1" stroke-width="10.5867" stroke-linecap="round" stroke-linejoin="round"/>
<path d="M460.694 201.646L433.646 180.419L460.694 160.213" stroke="#858585" stroke-opacity="0.1" stroke-width="10.5867" stroke-linecap="round" stroke-linejoin="round"/>
<path d="M433.648 44.3951C458.799 51.0514 478.658 70.7205 485.582 95.7607" stroke="#858585" stroke-opacity="0.1" stroke-width="12.7041" stroke-linecap="round"/>
</svg>
